<svg xmlns="http://www.w3.org/2000/svg" viewBox="0 0 512 512">
  <defs>
    <!-- 배경 -->
    <linearGradient id="bg" x1="0%" y1="0%" x2="100%" y2="100%">
      <stop offset="0%" style="stop-color:#282c34"/>
      <stop offset="100%" style="stop-color:#1e2127"/>
    </linearGradient>

    <!-- 한글 획 - 레드 (열정, 태극기) -->
    <linearGradient id="hangul" x1="0%" y1="0%" x2="100%" y2="100%">
      <stop offset="0%" style="stop-color:#e06c75"/>
      <stop offset="100%" style="stop-color:#be5046"/>
    </linearGradient>

    <!-- 일본어 획 - 블루 (신뢰, 학습) -->
    <linearGradient id="kana" x1="0%" y1="0%" x2="100%" y2="100%">
      <stop offset="0%" style="stop-color:#61afef"/>
      <stop offset="100%" style="stop-color:#528bff"/>
    </linearGradient>

    <!-- 교차점 - 골드 (성취, 지혜) -->
    <linearGradient id="wisdom" x1="0%" y1="0%" x2="100%" y2="100%">
      <stop offset="0%" style="stop-color:#e5c07b"/>
      <stop offset="100%" style="stop-color:#d19a66"/>
    </linearGradient>

    <!-- 글로우 -->
    <filter id="glow">
      <feGaussianBlur stdDeviation="3" result="blur"/>
      <feMerge>
        <feMergeNode in="blur"/>
        <feMergeNode in="SourceGraphic"/>
      </feMerge>
    </filter>
  </defs>

  <!-- 배경 -->
  <rect width="512" height="512" rx="96" fill="url(#bg)"/>
  <rect x="1" y="1" width="510" height="510" rx="95" fill="none" stroke="#3e4452" stroke-width="1"/>

  <g filter="url(#glow)">
    <!-- 한글 ㄱ 형태 (각진 획) - 레드 -->
    <path
      d="M150 140
         L340 140
         L340 260"
      stroke="url(#hangul)"
      stroke-width="38"
      stroke-linecap="round"
      stroke-linejoin="round"
      fill="none"
    />

    <!-- 히라가나 の 형태 (부드러운 곡선) - 블루 -->
    <path
      d="M170 220
         Q170 340 256 360
         Q340 380 360 300
         Q380 220 320 200
         Q260 180 240 240
         Q220 300 280 340"
      stroke="url(#kana)"
      stroke-width="34"
      stroke-linecap="round"
      fill="none"
    />
  </g>

  <!-- 교차점 (두 언어의 만남) - 골드 -->
  <circle cx="256" cy="220" r="16" fill="url(#wisdom)"/>

  <!-- 악센트 점들 -->
  <circle cx="380" cy="400" r="6" fill="#98c379" opacity="0.6"/>
  <circle cx="130" cy="380" r="4" fill="#c678dd" opacity="0.5"/>
</svg>
